<?xml version="1.0" encoding="UTF-8"?>
<svg width="128px" height="128px" viewBox="0 0 128 128" version="1.1" xmlns="http://www.w3.org/2000/svg" xmlns:xlink="http://www.w3.org/1999/xlink">
    <!-- Generator: Sketch 52.6 (67491) - http://www.bohemiancoding.com/sketch -->
    <title>icon-128x128</title>
    <desc>Created with Sketch.</desc>
    <g id="icon-128x128" stroke="none" stroke-width="1" fill="none" fill-rule="evenodd">
        <rect fill="#FFFFFF" x="0" y="0" width="128" height="128"></rect>
        <g id="Group-16" transform="translate(19.000000, 28.000000)">
            <path d="M22.7221738,23.5269332 L41,5.41841263 C30.7597874,-1.39709224 16.7646033,-0.330697845 7.71590484,8.63777994 C-2.57196828,18.8307611 -2.57196828,35.3514642 7.71590484,45.5410813 L14.2351891,52 C12.1176983,42.0391363 14.9330759,31.2439955 22.7221738,23.5269332" id="Fill-14" fill="#53C4DA"></path>
            <path d="M83.2106645,7.78971429 C78.0160553,2.59542857 71.2125267,0 64.4021224,0 C57.5985938,0 50.7881895,2.59542857 45.5970181,7.78971429 L26.7919139,26.5954286 C16.4026954,36.984 16.4026954,53.8251429 26.7919139,64.2102857 C31.9865231,69.4045714 38.7900517,72 45.5970181,72 C52.4039846,72 59.210951,69.4045714 64.4021224,64.2102857 L83.2106645,45.4045714 C93.5964452,35.016 93.5964452,18.1782857 83.2106645,7.78971429" id="Fill-12" fill="#F15E75"></path>
        </g>
    </g>
</svg>