<?xml version="1.0" encoding="UTF-8"?>
<svg width="256px" height="256px" viewBox="0 0 256 256" version="1.1" xmlns="http://www.w3.org/2000/svg" xmlns:xlink="http://www.w3.org/1999/xlink">
    <!-- Generator: Sketch 52.6 (67491) - http://www.bohemiancoding.com/sketch -->
    <title>icon-256x256</title>
    <desc>Created with Sketch.</desc>
    <g id="icon-256x256" stroke="none" stroke-width="1" fill="none" fill-rule="evenodd">
        <rect fill="#FFFFFF" x="0" y="0" width="256" height="256"></rect>
        <g id="Group-16" transform="translate(23.000000, 44.000000)">
            <path d="M53.2031386,53.7654916 L96,11.1572078 C72.0229169,-4.87927428 39.2537053,-2.37011099 18.0665089,18.7321897 C-6.02216964,42.7156747 -6.02216964,81.5879172 18.0665089,105.563487 L33.3311745,120.760943 C28.3731473,97.3236163 34.965251,71.9232852 53.2031386,53.7654916" id="Fill-14" fill="#53C4DA"></path>
            <path d="M192.824884,18.8287523 C180.704129,6.78089514 164.829229,0.760942761 148.938286,0.760942761 C133.063386,0.760942761 117.172442,6.78089514 105.059709,18.8287523 L61.1811323,62.4475618 C36.9396226,86.5432761 36.9396226,125.605371 61.1811323,149.693133 C73.3018872,161.74099 89.1767873,167.760943 105.059709,167.760943 C120.942631,167.760943 136.825552,161.74099 148.938286,149.693133 L192.824884,106.074324 C217.058372,81.9786094 217.058372,42.9244666 192.824884,18.8287523" id="Fill-12" fill="#F15E75"></path>
        </g>
    </g>
</svg>